<?xml version="1.0" encoding="iso-8859-1"?>
<!-- Uploaded to: SVG Repo, www.svgrepo.com, Generator: SVG Repo Mixer Tools -->
<!DOCTYPE svg PUBLIC "-//W3C//DTD SVG 1.1//EN" "http://www.w3.org/Graphics/SVG/1.1/DTD/svg11.dtd">
<svg fill="#000000" height="800px" width="800px" version="1.1" id="Capa_1" xmlns="http://www.w3.org/2000/svg" xmlns:xlink="http://www.w3.org/1999/xlink" 
	 viewBox="0 0 335.432 335.432" xml:space="preserve">
<g>
	<path d="M136.373,113.135c0.998,0.679,2.169,1.038,3.386,1.038h0.014c3.328,0,6.035-2.706,6.035-6.032
		c0-0.571-0.079-1.134-0.235-1.68c-3.172-13.899-1.68-25.076,4.436-33.224c7.385-9.837,10.655-22.467,8.748-33.782
		c-1.688-10.047-7.089-18.397-15.612-24.143c-2.018-1.365-4.789-1.355-6.806,0.03c-2.054,1.415-3.018,3.901-2.452,6.348
		c3.429,14.626,0.302,23.91-7.536,38.008c-4.966,8.933-6.993,18.972-5.708,28.266C122.098,98.499,127.546,107.208,136.373,113.135z"
		/>
	<path d="M193.113,108.673c0.938,0.642,2.035,0.981,3.172,0.981h0.006c3.108,0,5.637-2.529,5.637-5.637
		c0-0.52-0.071-1.035-0.214-1.536c-2.236-9.841-1.206-17.713,3.063-23.399c5.621-7.488,8.108-17.114,6.653-25.75
		c-1.297-7.712-5.443-14.125-11.991-18.544c-1.881-1.268-4.421-1.283-6.367,0.042c-1.896,1.317-2.805,3.708-2.27,5.917
		c2.432,10.369,0.188,16.994-5.423,27.083c-3.776,6.794-5.316,14.438-4.335,21.523C182.161,97.443,186.347,104.132,193.113,108.673z
		"/>
	<path d="M80.074,108.673c0.938,0.642,2.035,0.981,3.172,0.981h0.006c3.108,0,5.637-2.529,5.637-5.637
		c0-0.523-0.072-1.042-0.217-1.544c-2.232-9.837-1.201-17.707,3.065-23.391c5.621-7.488,8.108-17.114,6.653-25.75
		c-1.297-7.713-5.444-14.125-11.992-18.544c-1.88-1.268-4.421-1.285-6.366,0.042c-1.896,1.317-2.805,3.708-2.27,5.917
		c2.431,10.367,0.188,16.993-5.423,27.083c-3.776,6.794-5.316,14.438-4.335,21.523C69.122,97.443,73.308,104.132,80.074,108.673z"/>
	<path d="M330.149,183.855c-3.87-4.556-9.403-7.065-15.581-7.065h-35.794c0.145-0.842,0.297-1.68,0.436-2.525
		c0.845-5.154,0.352-12.915-3.819-17.825c-2.589-3.048-6.279-4.66-10.67-4.66H16.389c-6.499,0-10.244,2.799-12.241,5.146
		c-4.088,4.808-4.652,12.008-3.816,17.143c4.967,30.517,22.312,105.346,75.958,141.004l0.16,0.106
		c3.127,2.081,8.947,5.955,18.88,5.955h90.776c8.189,0,13.223-3.228,15.927-4.962l0.139-0.089
		c8.071-5.173,15.636-11.452,22.677-18.781c1.391,0.074,2.791,0.116,4.205,0.116c24.313,0,49.188-10.787,70.046-30.374
		c19.245-18.071,32.363-41.139,35.993-63.286C335.546,200.99,336.531,191.369,330.149,183.855z M249.466,263.601
		c1.696-3.02,3.346-6.123,4.938-9.327c7.084-14.254,13.073-30.322,17.75-47.484H303.6
		C296.409,229.856,274.641,254.37,249.466,263.601z"/>
</g>
</svg>